<?xml version="1.0" encoding="UTF-8" standalone="no"?>
<!DOCTYPE svg PUBLIC "-//W3C//DTD SVG 1.1//EN" "http://www.w3.org/Graphics/SVG/1.1/DTD/svg11.dtd">
<svg width="100%" height="100%" viewBox="0 0 1024 838" version="1.1" xmlns="http://www.w3.org/2000/svg" xmlns:xlink="http://www.w3.org/1999/xlink" xml:space="preserve" xmlns:serif="http://www.serif.com/" style="fill-rule:evenodd;clip-rule:evenodd;stroke-linejoin:round;stroke-miterlimit:2;">
    <ellipse cx="176" cy="807.85" rx="176" ry="29.99" style="fill:rgb(0,199,250);fill-opacity:0.1;"/>
    <ellipse cx="847.47" cy="800.75" rx="176" ry="29.99" style="fill:rgb(0,199,250);fill-opacity:0.1;"/>
    <path d="M274.41,0.46C228.41,2.92 181.93,16.36 146.04,45.25C114.55,70.61 91.84,110.48 97.38,150.54C103.92,197.83 146.11,232.23 161.76,277.34C171.83,306.34 170.26,338.34 163.67,368.34C159.43,387.67 152.91,407.02 140.38,422.34C117.81,449.9 77.08,463.2 65.99,497.05C53.93,533.86 84.32,569.96 112.87,596.14C135.66,617.03 159.53,637.82 188.25,649.27C209.25,657.65 232.04,660.66 254.63,661.86C317.008,665.133 379.378,655.167 437.63,632.62C465.54,621.79 492.54,608.06 521.75,601.53C584,587.61 648.05,607.68 711.14,617.08C765.221,625.114 820.182,625.276 874.31,617.56C908.37,612.7 943.56,603.93 969.21,581.01C995.21,557.74 1008.21,521.72 1006.77,486.82C1005.33,451.92 990.61,418.32 968.93,390.92C940.93,355.53 902.31,330.35 868.71,300.19C834.497,269.463 805.393,233.486 782.49,193.61C769.29,170.61 758.06,146.2 740.96,125.95C714.29,94.39 675.61,75.62 636.96,61.12C547.8,27.72 455.32,20.92 362.36,6.16C333.31,1.53 303.84,-1.08 274.41,0.46Z" style="fill:rgb(0,199,250);fill-opacity:0.1;fill-rule:nonzero;"/>
    <g opacity="0.7">
        <rect x="258.54" y="367.11" width="190.96" height="106.71" style="fill:rgb(246,247,249);fill-rule:nonzero;"/>
        <circle cx="294.49" cy="414.48" r="19.88" style="fill:rgb(0,199,250);fill-opacity:0.2;"/>
        <path d="M338.61,390.92L425.23,390.92L425.23,396.37L338.61,396.37L338.61,390.92ZM338.61,404.81L382.74,404.81L382.74,410.26L338.61,410.26L338.61,404.81ZM338.61,418.7L409.98,418.7L409.98,424.15L338.61,424.15L338.61,418.7ZM338.61,432.59L425.23,432.59L425.23,438.04L338.61,438.04L338.61,432.59ZM401.27,452.64L425.24,452.64L425.24,463.17L401.27,463.17L401.27,452.64Z" style="fill:rgb(0,199,250);fill-opacity:0.2;fill-rule:nonzero;"/>
        <rect x="419.31" y="72.2" width="190.96" height="106.71" style="fill:rgb(246,247,249);fill-rule:nonzero;"/>
        <circle cx="455.27" cy="119.57" r="19.88" style="fill:rgb(0,199,250);fill-opacity:0.2;"/>
        <path d="M499.39,96.01L586.01,96.01L586.01,101.46L499.39,101.46L499.39,96.01ZM499.39,109.9L543.52,109.9L543.52,115.35L499.39,115.35L499.39,109.9ZM499.39,123.79L570.76,123.79L570.76,129.24L499.39,129.24L499.39,123.79ZM499.39,137.69L586.01,137.69L586.01,143.14L499.39,143.14L499.39,137.69ZM562.04,157.73L586.01,157.73L586.01,168.26L562.04,168.26L562.04,157.73Z" style="fill:rgb(0,199,250);fill-opacity:0.2;fill-rule:nonzero;"/>
        <rect x="482.87" y="251.36" width="190.96" height="106.71" style="fill:rgb(246,247,249);fill-rule:nonzero;"/>
        <circle cx="518.82" cy="298.74" r="19.88" style="fill:rgb(0,199,250);fill-opacity:0.2;"/>
        <path d="M562.95,275.18L649.57,275.18L649.57,280.63L562.95,280.63L562.95,275.18ZM562.95,289.07L607.08,289.07L607.08,294.52L562.95,294.52L562.95,289.07ZM562.95,302.96L634.32,302.96L634.32,308.41L562.95,308.41L562.95,302.96ZM562.95,316.85L649.57,316.85L649.57,322.3L562.95,322.3L562.95,316.85ZM625.6,336.9L649.57,336.9L649.57,347.43L625.6,347.43L625.6,336.9Z" style="fill:rgb(0,199,250);fill-opacity:0.2;fill-rule:nonzero;"/>
    </g>
    <rect x="191.88" y="135.71" width="321.11" height="181.44" style="fill:url(#_Linear1);fill-rule:nonzero;"/>
    <rect x="194.15" y="137.96" width="316.6" height="176.93" style="fill:rgb(246,247,249);fill-rule:nonzero;"/>
    <circle cx="253.75" cy="216.51" r="32.96" style="fill:rgb(0,199,250);fill-opacity:0.2;"/>
    <path d="M326.92,177.44L470.54,177.44L470.54,186.47L326.92,186.47L326.92,177.44ZM326.92,200.48L400.08,200.48L400.08,209.51L326.92,209.51L326.92,200.48ZM326.92,223.51L445.25,223.51L445.25,232.54L326.92,232.54L326.92,223.51ZM326.92,246.54L470.54,246.54L470.54,255.57L326.92,255.57L326.92,246.54Z" style="fill:rgb(0,199,250);fill-opacity:0.2;fill-rule:nonzero;"/>
    <rect x="430.79" y="279.78" width="39.74" height="17.46" style="fill:rgb(0,199,250);fill-rule:nonzero;"/>
    <rect x="417.12" y="380.82" width="305.42" height="170.67" style="fill:url(#_Linear2);fill-rule:nonzero;"/>
    <rect x="419.23" y="381.99" width="301.2" height="168.32" style="fill:rgb(246,247,249);fill-rule:nonzero;"/>
    <circle cx="475.94" cy="456.72" r="31.36" style="fill:rgb(0,199,250);fill-opacity:0.2;"/>
    <path d="M545.54,419.55L682.17,419.55L682.17,428.14L545.54,428.14L545.54,419.55ZM545.54,441.47L615.14,441.47L615.14,450.06L545.54,450.06L545.54,441.47ZM545.54,463.38L658.11,463.38L658.11,471.97L545.54,471.97L545.54,463.38ZM545.54,485.29L682.17,485.29L682.17,493.88L545.54,493.88L545.54,485.29Z" style="fill:rgb(0,199,250);fill-opacity:0.2;fill-rule:nonzero;"/>
    <rect x="644.36" y="516.91" width="37.81" height="16.61" style="fill:rgb(0,199,250);fill-opacity:0.5;fill-rule:nonzero;"/>
    <g transform="matrix(1,0,0,1,-88.27,-31.08)">
        <path d="M171.13,319L171.87,319.16C171.654,319.012 171.388,318.954 171.13,319Z" style="fill:url(#_Linear3);fill-rule:nonzero;"/>
    </g>
    <g transform="matrix(1,0,0,1,-88.27,-31.08)">
        <path d="M325.85,435.17C323.64,420.33 310.16,385.71 310.16,385.71C309.92,384.71 309.66,383.65 309.36,382.63C299.79,349.74 286.55,346.83 286.55,346.83L239.12,336.72C239.511,336.965 239.851,337.284 240.12,337.66L239.37,337.78C237.193,335.213 235.755,332.101 235.21,328.78C235.12,328.29 235.04,327.78 234.98,327.26C241.424,320.985 245.062,312.362 245.062,303.368C245.062,293.116 240.335,283.417 232.26,277.1C231.77,276.71 231.26,276.34 230.74,275.97C232.98,273.6 233.05,270.29 231.38,266.97C227.64,259.2 219.52,254.29 211.16,251.9C204.78,250.07 197.86,249.48 191.54,251.48C187.93,252.62 184.65,254.55 181.27,256.24C174.97,259.39 168.03,261.88 163.27,267.05C162.16,268.26 161.15,269.8 161.47,271.39C161.72,272.58 162.65,273.49 163.26,274.55C164.61,276.91 164.26,279.88 163.35,282.45C162.44,285.02 161.06,287.45 160.41,290.05C159.76,292.65 160.02,295.79 162,297.67C162.962,298.423 163.963,299.124 165,299.77C166.086,300.69 167.039,301.757 167.83,302.94L173.45,310.53C176.073,313.895 178.415,317.47 180.45,321.22C181.84,323.97 182.93,326.92 184.8,329.38C185.35,330.112 185.977,330.782 186.67,331.38C186.49,331.31 186.3,331.25 186.12,331.17C187.793,332.801 190.066,333.673 192.4,333.58L192.68,333.58C193.109,333.573 193.519,333.405 193.83,333.11L193.83,334.11C193.93,337.76 193.92,341.64 193.66,345.28L193.22,345.06C191.892,344.393 190.29,344.562 189.13,345.49L145.44,380.49C145.44,380.49 135.95,393.49 137.27,415.89L129.62,449.51C129.62,449.51 120.05,478.04 127.41,498.41C134.77,518.78 139.04,530.41 139.04,530.41C139.04,530.41 141.98,553.55 146.4,555.41C150.82,557.27 152.73,558.33 152.73,558.33L153.61,563.86C153.61,563.86 153.9,564.39 154.42,565.31C157.64,570.9 169.55,590.64 176.48,588.54C177.346,593.898 177.724,599.324 177.61,604.75L184.45,650.75C184.45,650.75 189.23,663.26 188.94,669.81C188.65,676.36 194.53,685.68 194.53,685.68C190.961,692.206 189.915,699.823 191.59,707.07C194.39,719.3 197.92,775.76 197.92,775.76L203.07,789.44L202.92,805.44C202.494,808.038 201.405,810.484 199.76,812.54C196.44,816.14 196.66,820.3 188.76,825.21C180.86,830.12 175.76,831.97 175.76,838.52C175.751,839.425 175.671,840.328 175.52,841.22C174.78,846.01 173.35,848.59 188.02,849.99C205.24,851.62 216.72,840.38 216.72,840.38C216.72,840.38 219.25,835.79 231.18,833.94C231.18,833.94 235.25,833.72 235.48,830.11C235.56,828.87 235.54,826.49 235.43,823.87C235.24,818.87 234.76,813.05 234.13,812.76C233.34,812.41 231.94,807.38 231.46,805.56L234.78,805.56C234.78,805.56 237.87,782.42 234.78,767.42C231.69,752.42 234.49,741.81 234.49,741.81L233.9,702.23C233.9,702.23 229.73,698 233,690.3C236.27,682.6 233,644.46 233,644.46C233,644.46 234.19,630.78 237.57,627.58C240.95,624.38 237.74,607.53 237.57,606.65L243.57,626.85C243.57,626.85 246.22,667.02 251.82,674.3L253.44,692.48C253.44,692.48 264.92,709.22 262.71,718.25C260.5,727.28 265.07,759.87 265.07,759.87L265.07,793.2C265.07,793.2 259.91,806.59 267.13,811.39L270.24,811.27C269.18,812.27 268.42,813.66 267.24,814.89C265.86,816.31 265.08,821.71 264.64,826.35C264.27,830.28 264.15,833.66 264.15,833.66C264.15,833.66 267.24,838.57 272.98,838.9C278.72,839.23 297.71,853.75 297.71,853.75C297.71,853.75 316.49,853.75 321.34,852.75L321.63,852.68C323.187,852.184 324.498,851.11 325.29,849.68C326.268,848.025 326.586,846.059 326.18,844.18C325.57,841.31 323.3,838.18 318.25,835.49C305.66,828.84 303.79,822.62 303.79,822.62L295.54,810.26L296.72,810.26C296.72,810.26 295.99,797.16 304.96,782.46L304.38,717.7C304.38,717.7 308.05,695.43 301.73,683.35C301.73,683.35 301.21,670.54 305.44,666.61C309.67,662.68 299.81,622.95 299.81,622.95C299.81,622.95 297.81,601.63 295.37,582.17C305.3,591.59 315.61,557.66 317.37,551.63L317.63,551.63C317.63,551.63 317.58,551.47 317.51,551.19C317.44,550.91 317.63,550.76 317.63,550.76C317.63,550.71 315.43,542.91 317.04,544.5C318.65,546.09 322.64,540.14 322.64,540.14C322.64,540.14 322.05,507.68 328.97,491.32C335.89,474.96 325.85,435.17 325.85,435.17ZM296.26,455.82L296.31,455.73C297.31,475.55 296.11,517.84 296.11,517.84C296.11,517.84 294.75,523.26 293.29,529.64L292.24,489.46L291.24,451.62L296.26,455.82ZM169.53,442.16C169.53,442.16 174.53,504.74 169.53,513.76C168.1,516.33 166.91,520.9 165.92,526.13C164.27,521.79 160.77,511.6 162.02,506.2C163.64,499.2 158.78,480.87 158.78,480.44C158.78,480.01 158.34,470.25 161.87,462.75C165.4,455.25 163.05,452.05 163.05,452.05C163.05,452.05 166,439.83 169.53,442.16Z" style="fill:url(#_Linear4);fill-rule:nonzero;"/>
    </g>
    <path d="M93.44,552.02C89.09,571.18 71.75,542.2 67.8,535.25L67,533.81L68.88,525L78.82,520.95C80.39,521.771 81.877,522.742 83.26,523.85C88.73,528.09 96.8,537.18 93.44,552.02ZM227.94,520.66L227.83,521.09C227.83,521.22 227.74,521.37 227.69,521.56C225.99,527.56 215.88,561.22 206.12,551.87C195.44,541.61 200.63,518.05 200.63,518.05L200.73,518.05L223.2,515.75L227.65,520.33L227.94,520.66Z" style="fill:rgb(239,183,185);fill-rule:nonzero;"/>
    <path d="M214.94,686.37L215.51,750.65C206.71,765.25 207.42,778.25 207.42,778.25L178.42,779.4C171.34,774.64 176.42,761.35 176.42,761.35L176.42,728.26C176.42,728.26 171.89,695.92 174.05,686.92C176.21,677.92 164.95,661.35 164.95,661.35L163.37,643.3C157.87,636.08 155.27,596.2 155.27,596.2L149.36,576.2C149.51,577.07 152.58,593.88 149.36,596.97C146.14,600.06 144.88,613.73 144.88,613.73C144.88,613.73 148.06,651.58 144.88,659.23C141.7,666.88 145.74,671.23 145.74,671.23L146.33,710.52C146.33,710.52 143.58,721.07 146.61,735.95C149.64,750.83 146.61,773.8 146.61,773.8L115.41,773.8L115.55,757.8L110.5,744.22C110.5,744.22 107.03,688.17 104.29,676.04C102.644,668.847 103.668,661.295 107.17,654.8C110.672,648.305 101.4,645.55 101.69,639.05C101.98,632.55 97.28,620.13 97.28,620.13L90.56,574.48C90.749,565.697 89.63,556.934 87.24,548.48C83.33,535.48 77.56,518.43 77.56,518.43L84.08,519.01L117,521.94C117,521.94 197,516.56 200.61,521.03C201.37,522.489 201.884,524.064 202.13,525.69C205.72,541.84 210.47,592.4 210.47,592.4C210.47,592.4 220.15,631.84 215.99,635.74C211.83,639.64 212.35,652.35 212.35,652.35C218.55,664.27 214.94,686.37 214.94,686.37Z" style="fill:rgb(68,64,83);fill-rule:nonzero;"/>
    <path d="M147.29,798.14C147.06,801.72 143.06,801.94 143.06,801.94C131.36,803.78 128.88,808.34 128.88,808.34C128.88,808.34 117.61,819.49 100.73,817.92C86.34,816.54 87.73,813.92 88.47,809.22C88.617,808.334 88.694,807.438 88.7,806.54C88.7,800.04 93.7,798.19 101.49,793.32C109.28,788.45 109.07,784.32 112.32,780.75C115.57,777.18 115.9,770.25 115.9,770.25C119.58,763.85 128.9,771.25 128.9,771.25C129.33,773.52 143.2,773.25 143.2,773.25C143.2,773.25 145.04,780.62 145.98,781.05C146.6,781.34 147.07,787.12 147.26,792.05C147.35,794.55 147.36,796.92 147.29,798.14Z" style="fill:rgb(176,116,115);fill-rule:nonzero;"/>
    <path d="M147.29,798.14C147.06,801.72 143.06,801.94 143.06,801.94C131.36,803.78 128.88,808.34 128.88,808.34C128.88,808.34 117.61,819.49 100.73,817.92C86.34,816.54 87.73,813.92 88.47,809.22C94.9,810.82 107.2,813.04 114.38,809.14C124.38,803.72 131.51,799.93 131.51,799.93L147.24,791.92C147.35,794.55 147.36,796.92 147.29,798.14Z" style="fill-opacity:0.1;fill-rule:nonzero;"/>
    <path d="M235.47,817.43C234.702,818.857 233.412,819.932 231.87,820.43C231.779,820.463 231.685,820.486 231.59,820.5C226.82,821.5 208.4,821.5 208.4,821.5C208.4,821.5 189.73,807.04 184.13,806.71C178.53,806.38 175.46,801.51 175.46,801.51C175.46,801.51 175.57,798.15 175.93,794.25C176.37,789.64 177.14,784.25 178.49,782.87C180.99,780.27 181.49,776.7 187.16,778.97C187.16,778.97 195.16,764.86 204.6,775.76L214.36,790.57C214.36,790.57 216.2,796.74 228.56,803.35C233.51,806 235.74,809.12 236.33,811.97C236.736,813.833 236.429,815.782 235.47,817.43Z" style="fill:rgb(176,116,115);fill-rule:nonzero;"/>
    <path d="M235.47,817.43C234.37,818.36 233.14,819.36 231.87,820.43C231.779,820.463 231.685,820.486 231.59,820.5C226.82,821.5 208.4,821.5 208.4,821.5C208.4,821.5 189.73,807.04 184.13,806.71C178.53,806.38 175.46,801.51 175.46,801.51C175.46,801.51 175.57,798.15 175.93,794.25C181.66,795.97 190.36,799 192.69,802.25C196.26,807.25 207.11,814.16 207.11,814.16C207.11,814.16 227.34,812.22 236.33,811.95C236.741,813.819 236.434,815.776 235.47,817.43Z" style="fill-opacity:0.1;fill-rule:nonzero;"/>
    <path d="M156.73,313.28L130.07,341.45C130.07,341.45 97.78,339.07 103.42,329.53C106.29,324.68 106.74,314.53 106.49,305.67C106.25,297.14 105.37,289.88 105.37,289.88C105.37,289.88 150.66,267.34 147.19,288.36C146.454,292.322 146.41,296.383 147.06,300.36C149.03,310.98 156.73,313.28 156.73,313.28Z" style="fill:rgb(239,183,185);fill-rule:nonzero;"/>
    <path d="M147.18,288.36C146.444,292.322 146.4,296.383 147.05,300.36C140.796,306.696 132.252,310.261 123.35,310.25C117.19,310.25 110.6,305.25 105.65,302.3C105.41,293.77 105.36,289.88 105.36,289.88C105.36,289.88 150.65,267.34 147.18,288.36Z" style="fill-opacity:0.1;fill-rule:nonzero;"/>
    <path d="M156.73,275.14C156.73,275.144 156.73,275.147 156.73,275.151C156.73,293.463 141.662,308.531 123.35,308.531C105.038,308.531 89.97,293.463 89.97,275.151C89.97,256.839 105.038,241.771 123.35,241.771C130.914,241.771 138.258,244.342 144.17,249.06C152.099,255.387 156.727,264.996 156.73,275.14Z" style="fill:rgb(239,183,185);fill-rule:nonzero;"/>
    <path d="M202.12,525.61C193.81,545.39 140.35,545.8 140.35,545.8L140.35,524.24L137.11,524.03C138.51,530.2 135.11,545.26 135.11,545.26C92.86,551.26 82.57,527.17 82.57,527.17L84.03,518.93L116.95,521.86C116.95,521.86 196.95,516.48 200.56,520.95C201.334,522.406 201.861,523.981 202.12,525.61Z" style="fill-opacity:0.1;fill-rule:nonzero;"/>
    <path d="M140.35,543.2L140.35,521.63L137.11,521.43C138.51,527.6 135.11,542.66 135.11,542.66C103.32,547.14 89.61,534.66 84.78,528.16C83.916,527.043 83.175,525.836 82.57,524.56L95.46,451.97L98.46,345.14L103.11,326.4L104.19,317.4L104.19,317.3L104.3,317.35L107.58,318.76L127.26,327.26L149.73,310.39L150.06,310.14L151.17,309.3L153.02,310.79L157.61,314.47L172.35,409.61C172.35,409.61 197.91,482.87 202.65,512.44C202.84,513.62 203,514.72 203.12,515.75C206.23,542.7 140.35,543.2 140.35,543.2Z" style="fill:rgb(225,231,239);fill-rule:nonzero;"/>
    <circle cx="129.73" cy="329.32" r="1.9" style="fill:rgb(103,100,126);"/>
    <circle cx="130.61" cy="346.65" r="1.9" style="fill:rgb(103,100,126);"/>
    <circle cx="132.5" cy="374.72" r="1.9" style="fill:rgb(103,100,126);"/>
    <circle cx="135.65" cy="404.94" r="1.9" style="fill:rgb(103,100,126);"/>
    <circle cx="137.54" cy="433.33" r="1.9" style="fill:rgb(103,100,126);"/>
    <circle cx="139.44" cy="463.56" r="1.9" style="fill:rgb(103,100,126);"/>
    <circle cx="138.68" cy="493.47" r="1.9" style="fill:rgb(103,100,126);"/>
    <path d="M105.53,462.53C105.53,462.53 103.41,490.33 99.53,498.41C95.65,506.49 93.89,529.18 93.89,529.18L84.89,528.18C84.026,527.063 83.285,525.856 82.68,524.58L95.57,451.99L98.57,345.16L103.22,326.42L104.3,317.42C104.335,317.393 104.376,317.376 104.42,317.37C105.442,316.887 106.633,316.906 107.64,317.42L108.08,317.64C107.95,318.01 107.82,318.39 107.7,318.78C104.18,329.83 102.86,350.21 102.86,350.21C102.86,350.21 107.92,387.48 108.49,404.82C109.06,422.16 105.53,462.53 105.53,462.53Z" style="fill-opacity:0.1;fill-rule:nonzero;"/>
    <path d="M83.26,523.85C83.161,524.08 83.047,524.304 82.92,524.52C79.41,530.45 70.51,534.22 67.8,535.25L67,533.81L68.88,525L78.82,520.95C80.39,521.771 81.877,522.742 83.26,523.85Z" style="fill-opacity:0.1;fill-rule:nonzero;"/>
    <path d="M59.2,381.98L50.97,386.92L43.45,420.29C43.45,420.29 34.06,448.61 41.29,468.83C48.52,489.05 52.73,500.58 52.73,500.58C52.73,500.58 55.62,523.58 59.95,525.43C64.28,527.28 66.17,528.32 66.17,528.32L67.03,533.81C67.03,533.81 78.79,529.81 82.95,522.81C87.11,515.81 79.89,498.3 79.89,498.3C79.89,498.3 73.68,483.42 75.27,476.49C76.86,469.56 72.09,451.35 72.09,450.92C72.09,450.49 71.66,440.8 75.09,433.36C78.52,425.92 76.25,422.75 76.25,422.75L74.08,401.51L59.2,381.98Z" style="fill:rgb(103,100,126);fill-rule:nonzero;"/>
    <path d="M202.8,519.36C202.8,519.36 180.99,527.6 174.05,520.36C167.11,513.12 167.84,479.36 167.84,479.36C167.84,479.36 161.2,416.95 157,406.7C152.8,396.45 155,322.47 155,322.47C155,322.47 152.16,312.92 149.73,310.39C149.577,310.224 149.402,310.079 149.21,309.96L150.06,310.14L153.06,310.79L157.65,314.47L172.39,409.61C172.39,409.61 197.95,482.87 202.69,512.44L202.8,519.36Z" style="fill-opacity:0.1;fill-rule:nonzero;"/>
    <path d="M227.94,521.53L227.69,521.53C224.95,521.88 200.69,524.81 200.6,519.77C200.6,519.185 200.634,518.601 200.7,518.02L223.17,515.72L227.62,520.3C227.7,520.6 227.77,520.86 227.83,521.06L227.94,521.53Z" style="fill-opacity:0.1;fill-rule:nonzero;"/>
    <path d="M204.73,348.55L220.68,356.86C220.68,356.86 233.91,391.22 236.08,405.96C236.08,405.96 245.9,445.43 239.08,461.66C232.26,477.89 232.87,510.12 232.87,510.12C232.87,510.12 228.97,516.04 227.38,514.45C225.79,512.86 227.96,520.66 227.96,520.66C227.96,520.66 200.73,524.28 200.6,518.92C200.47,513.56 206.85,488 206.85,488C206.85,488 208.58,427.18 206.12,417.65C203.66,408.12 204.73,348.55 204.73,348.55Z" style="fill:rgb(103,100,126);fill-rule:nonzero;"/>
    <path d="M157.15,413.33C157.15,413.33 148.15,435.28 145.3,436.73C142.45,438.18 145.88,443.95 145.88,443.95C145.88,443.95 162.21,421.13 157.15,413.33ZM151.81,336.32C151.91,335.9 141.11,346.91 138.23,348.55C135.35,350.19 148.73,348.46 151.81,336.32ZM121.73,411.59C121.73,411.59 105.26,422.25 107.42,426.45C109.58,430.65 121.73,411.59 121.73,411.59ZM151.66,567.04C151.66,567.04 165.66,576.04 187.49,578.31L151.66,567.04ZM118,588.71C118,588.71 131,605.03 136.93,605.47C142.86,605.91 118,588.71 118,588.71ZM136.2,652.71C135.62,653 128.83,667.44 121.9,667.88C114.97,668.32 136.2,652.71 136.2,652.71ZM196.45,684.34C196.45,684.34 209.33,681.46 212.19,690.7C212.19,690.7 211.33,687.81 196.45,684.34ZM187.78,737.22C187.78,737.22 203.38,734.04 206.7,738.38C210.02,742.72 187.78,737.22 187.78,737.22ZM143.62,744.59C143.62,744.73 127.73,747.77 128.36,749.79C128.99,751.81 145.3,751.52 145.88,748.34C145.955,748.074 145.993,747.8 145.993,747.524C145.993,746.114 144.999,744.885 143.62,744.59ZM182.58,758.31C182.58,758.31 208.68,755.13 207.04,760.62C205.4,766.11 182.58,758.31 182.58,758.31ZM45.91,436.73C46.06,437.16 63.1,439.47 65.41,444.96C65.41,444.96 48.66,437.16 46.06,437.16M69.89,481.37C69.89,481.37 55.73,485.85 56.73,492.64C57.73,499.43 55.3,489.47 69.89,481.37ZM63.29,515.75C63.29,515.75 68.45,508.67 73.36,509.97C78.27,511.27 63.29,515.75 63.29,515.75ZM144.16,249.06C143.661,249.541 143.103,249.958 142.5,250.3C138.39,252.68 137.29,256.3 135.32,260.57C133.52,264.44 131.53,268.57 127.88,270.73C123.18,273.56 116.98,272.52 112.09,275C107.666,277.318 105.073,282.109 105.55,287.08C105.868,288.958 106.336,290.807 106.95,292.61C108.053,296.511 108.556,300.558 108.44,304.61C108.455,304.733 108.455,304.857 108.44,304.98C97.135,299.34 89.963,287.745 89.963,275.111C89.963,256.8 105.031,241.731 123.343,241.731C130.923,241.731 138.282,244.313 144.2,249.05L144.16,249.06Z" style="fill-opacity:0.1;fill-rule:nonzero;"/>
    <path d="M143.29,239.02C139.62,231.31 131.65,226.44 123.45,224.02C117.19,222.21 110.4,221.62 104.19,223.61C100.65,224.74 97.42,226.61 94.11,228.33C87.92,231.46 81.11,233.93 76.46,239.07C75.38,240.26 74.38,241.8 74.7,243.38C74.94,244.56 75.86,245.46 76.45,246.51C77.78,248.85 77.45,251.8 76.54,254.35C75.63,256.9 74.3,259.28 73.66,261.9C73.02,264.52 73.27,267.59 75.21,269.46C76.147,270.203 77.122,270.897 78.13,271.54C79.19,272.462 80.121,273.521 80.9,274.69L86.41,282.22C89.001,285.562 91.309,289.114 93.31,292.84C94.69,295.57 95.75,298.49 97.58,300.93C99.41,303.37 102.28,305.33 105.32,305.06C105.796,305.076 106.252,304.859 106.54,304.48C106.66,304.242 106.715,303.976 106.7,303.71C106.824,299.657 106.322,295.609 105.21,291.71C104.596,289.907 104.128,288.058 103.81,286.18C103.336,281.209 105.928,276.42 110.35,274.1C115.25,271.63 121.45,272.67 126.15,269.84C129.8,267.63 131.79,263.54 133.59,259.67C135.59,255.44 136.66,251.78 140.77,249.4C144.88,247.02 145.32,243.07 143.29,239.02Z" style="fill:rgb(88,82,104);fill-rule:nonzero;"/>
    <path d="M128.34,784.5C128.34,784.5 133.42,791 132.12,794.68C130.82,798.36 128.34,784.5 128.34,784.5ZM197.41,800.75C197.41,800.75 198.54,792.03 203.09,791.95C207.64,791.87 207.86,791.48 211.33,792.81C214.8,794.14 218.05,796.22 217.02,796.54C215.99,796.86 211.02,791.54 206.02,794.25C202.843,795.977 199.942,798.168 197.41,800.75ZM113.11,338.15L127.35,328.15C127.35,328.15 106.44,315.79 103.95,317.53C101.46,319.27 99.75,334.87 99.75,334.87L113.11,338.15Z" style="fill-opacity:0.1;fill-rule:nonzero;"/>
    <path d="M113.05,337.5L127.35,327.26C127.35,327.26 106.44,314.91 103.95,316.64C101.46,318.37 99.75,334.85 99.75,334.85L113.05,337.5Z" style="fill:rgb(225,231,239);fill-rule:nonzero;"/>
    <path d="M113.05,337.5L127.35,327.26C127.35,327.26 106.44,314.91 103.95,316.64C101.46,318.37 99.75,334.85 99.75,334.85L113.05,337.5Z" style="fill-opacity:0.03;fill-rule:nonzero;"/>
    <path d="M106.31,316.76L105.88,316.54C104.583,315.878 103.011,316.043 101.88,316.96L59,351.75C59,351.75 49.68,364.64 51,386.89L76.28,422.72C76.28,422.72 79.17,410.58 82.64,412.89C82.64,412.89 87.55,475.01 82.64,483.97C77.73,492.93 75.56,526.44 75.56,526.44L92.17,528.32C92.17,528.32 93.9,505.64 97.8,497.55C101.7,489.46 103.8,461.66 103.8,461.66C103.8,461.66 107.31,421.27 106.73,403.92C106.15,386.57 101.1,349.32 101.1,349.32C101.1,349.32 102.51,327.48 106.31,316.76Z" style="fill:rgb(103,100,126);fill-rule:nonzero;"/>
    <path d="M149.02,331.81L131.21,325.21C131.21,325.21 153.9,300.37 156.72,314.15L149.02,331.81Z" style="fill-opacity:0.1;fill-rule:nonzero;"/>
    <path d="M149.02,330.92L131.21,324.33C131.21,324.33 153.9,299.48 156.72,313.26L149.02,330.92Z" style="fill:rgb(225,231,239);fill-rule:nonzero;"/>
    <path d="M149.02,330.92L131.21,324.33C131.21,324.33 153.9,299.48 156.72,313.26L149.02,330.92Z" style="fill-opacity:0.03;fill-rule:nonzero;"/>
    <path d="M148.45,309.81C148.703,309.764 148.965,309.818 149.18,309.96L148.45,309.81Z" style="fill-opacity:0.1;fill-rule:nonzero;"/>
    <path d="M150.18,308.07L197.46,318.27C197.46,318.27 210.46,321.16 219.85,353.8C229.24,386.44 206.99,426.45 206.99,426.45L202.08,422.28L204.54,517.63C204.54,517.63 182.72,525.86 175.79,518.63C168.86,511.4 169.57,477.63 169.57,477.63C169.57,477.63 162.93,415.2 158.73,404.92C154.53,394.64 156.73,320.69 156.73,320.69C156.73,320.69 152.82,307.5 150.18,308.07Z" style="fill:rgb(103,100,126);fill-rule:nonzero;"/>
    <path d="M193.41,368.83C192.74,369.45 191.97,398.3 194.86,420.26C196.633,433.633 199.371,446.861 203.05,459.84L198.76,371.84C198.76,371.84 195.43,366.92 193.41,368.83ZM187.63,343.98C188.79,344.7 193.85,356.69 191.53,361.61C189.21,366.53 187.63,343.98 187.63,343.98ZM143.01,239.02C140.695,234.449 137.079,230.663 132.62,228.14C135.931,230.501 138.607,233.645 140.41,237.29C142.41,241.34 141.85,245.4 137.88,247.7C133.91,250 132.67,253.7 130.71,257.97C128.91,261.84 126.91,265.97 123.26,268.13C118.56,270.97 112.37,269.93 107.47,272.39C103.047,274.714 100.454,279.506 100.93,284.48C101.243,286.359 101.711,288.209 102.33,290.01C103.44,293.91 103.939,297.958 103.81,302.01C103.827,302.275 103.776,302.541 103.66,302.78C103.372,303.159 102.916,303.376 102.44,303.36C101.216,303.456 99.988,303.228 98.88,302.7C100.513,304.315 102.745,305.181 105.04,305.09C105.516,305.106 105.972,304.889 106.26,304.51C106.375,304.27 106.43,304.006 106.42,303.74C106.539,299.687 106.037,295.64 104.93,291.74C104.311,289.939 103.843,288.089 103.53,286.21C103.056,281.239 105.648,276.45 110.07,274.13C114.97,271.66 121.16,272.7 125.86,269.87C129.51,267.66 131.51,263.57 133.31,259.7C135.31,255.47 136.37,251.81 140.48,249.43C144.59,247.05 145.03,243.07 143.01,239.02Z" style="fill-opacity:0.1;fill-rule:nonzero;"/>
    <ellipse cx="968.23" cy="761.73" rx="41" ry="5.63" style="fill:rgb(0,199,250);fill-opacity:0.1;"/>
    <ellipse cx="646.82" cy="814.56" rx="29.14" ry="4" style="fill:rgb(0,199,250);fill-opacity:0.1;"/>
    <ellipse cx="386.08" cy="784.91" rx="29.14" ry="4" style="fill:rgb(0,199,250);fill-opacity:0.1;"/>
    <path d="M402.13,775.81C403.966,774.315 405.302,772.294 405.96,770.02C406.46,767.73 405.48,764.97 403.28,764.13C400.82,763.19 398.19,764.9 396.2,766.62C394.21,768.34 391.92,770.31 389.32,769.94C392.042,767.467 393.274,763.738 392.56,760.13C392.442,759.396 392.131,758.705 391.66,758.13C390.29,756.67 387.81,757.3 386.18,758.45C380.98,762.1 379.53,769.17 379.5,775.52C378.98,773.23 379.42,770.84 379.4,768.52C379.38,766.2 378.75,763.52 376.76,762.3C375.537,761.623 374.158,761.278 372.76,761.3C370.43,761.21 367.82,761.45 366.23,763.16C364.23,765.28 364.76,768.84 366.48,771.16C368.2,773.48 370.83,774.97 373.25,776.58C375.186,777.734 376.837,779.31 378.08,781.19C378.23,781.453 378.351,781.731 378.44,782.02L393.1,782.02C396.373,780.361 399.41,778.272 402.13,775.81ZM984.86,754.71C986.707,753.217 988.057,751.198 988.73,748.92C989.23,746.63 988.25,743.92 986.05,743.03C983.59,742.09 980.96,743.8 978.97,745.52C976.98,747.24 974.69,749.21 972.08,748.84C974.811,746.373 976.044,742.638 975.32,739.03C975.212,738.293 974.9,737.6 974.42,737.03C973.06,735.57 970.58,736.2 968.95,737.35C963.75,741 962.3,748.07 962.27,754.42C961.74,752.13 962.19,749.74 962.17,747.42C962.15,745.1 961.51,742.42 959.53,741.2C958.307,740.523 956.928,740.178 955.53,740.2C953.19,740.11 950.59,740.35 948.99,742.06C946.99,744.18 947.52,747.74 949.25,750.06C950.98,752.38 953.6,753.87 956.02,755.48C957.956,756.634 959.607,758.21 960.85,760.09C960.996,760.355 961.116,760.633 961.21,760.92L975.86,760.92C979.123,759.261 982.15,757.172 984.86,754.71ZM654.73,801.46C656.565,799.962 657.904,797.943 658.57,795.67C659.06,793.37 658.08,790.67 655.89,789.78C653.43,788.84 650.8,790.54 648.81,792.27C646.82,794 644.53,795.95 641.92,795.59C644.647,793.12 645.88,789.388 645.16,785.78C645.047,785.044 644.736,784.353 644.26,783.78C642.89,782.32 640.42,782.95 638.78,784.1C633.58,787.76 632.13,794.82 632.1,801.18C631.58,798.89 632.02,796.5 632.01,794.18C632,791.86 631.35,789.18 629.37,787.96C628.146,787.286 626.767,786.941 625.37,786.96C623.03,786.88 620.43,787.11 618.83,788.82C616.83,790.95 617.36,794.51 619.09,796.82C620.82,799.13 623.44,800.62 625.85,802.24C627.812,803.408 629.481,805.009 630.73,806.92C630.874,807.182 630.994,807.457 631.09,807.74L645.73,807.74C649,806.062 652.027,803.95 654.73,801.46Z" style="fill:rgb(0,199,250);fill-rule:nonzero;"/>
    <g transform="matrix(1,0,0,1,-88.27,-31.08)">
        <path d="M1036.86,376.24C1023.74,375.98 1012.16,366.68 1005.6,355.4C1003.88,352.706 1002.8,349.655 1002.44,346.48C1002.49,345.756 1002.61,345.039 1002.8,344.34C1003.22,343.282 1003.56,342.192 1003.8,341.08C1003.86,340.635 1003.86,340.185 1003.8,339.74L1003.8,339.68C1004.12,337.26 1002.7,334.93 1000.92,333.26C999.14,331.59 996.97,330.38 995.14,328.77C989.5,323.82 987.79,315.88 987.68,308.32L987.68,307.92C987.74,304.69 988,301.44 987.97,298.2C988.015,296.36 987.935,294.519 987.73,292.69C987.19,288.11 985.45,283.45 981.85,280.53C972.46,272.92 956.67,280.84 946.96,273.64C944.59,271.89 942.68,269.28 939.82,268.64C937.65,268.12 935.4,268.82 933.29,269.52C926.13,271.88 918.15,274.99 915.35,281.95C913.75,285.95 914.2,290.44 912.73,294.46C911.73,297.15 909.96,299.46 908.64,302.02C907.552,303.939 907.022,306.125 907.11,308.33C906.999,309.471 907.16,310.623 907.58,311.69C908.074,312.965 908.871,314.1 909.9,315C909.524,315.793 909.054,316.539 908.5,317.22C906.67,319.46 903.86,321.06 901.96,323.22C898.44,327.3 898.57,332.85 900.31,337.65C902.05,342.45 905.17,346.82 907.31,351.49C908.24,353.49 908.99,355.79 908.02,357.81C907.35,359.21 905.95,360.27 904.86,361.48C903.264,363.271 902.264,365.515 902,367.9C880.57,372.79 880.56,390 880.56,390L869,419.14C869,419.14 867.15,424.04 865,430.51L851.3,428.06L860.76,444C858.95,450.49 857.68,456.51 858.1,459.53C858.1,459.53 853.85,479.53 861.41,483.02L878.11,490.53C878.831,490.967 879.608,491.304 880.42,491.53L881.1,491.83C881.592,492.071 882.168,492.071 882.66,491.83L882.93,491.83C883.27,491.865 883.613,491.817 883.93,491.69C884.305,491.494 884.599,491.171 884.76,490.78C884.764,490.75 884.764,490.72 884.76,490.69L889.76,489.24L894,494.24C895.91,495.58 897.78,496.75 899.61,497.8L893.09,563C893.09,563 892.03,649.66 888.84,669.39C887.65,676.7 887.64,681.68 888.09,685.07L887.97,685.29C888.76,690.86 890.81,691.96 890.81,691.96L890.81,691.88L890.93,691.96C891.896,689.431 893.042,686.975 894.36,684.61L894.36,686.03C894.3,693.39 894.07,703.68 893.36,710.37C892.06,721.75 896.67,759.45 896.67,759.45L898.26,793.75C898.518,799.569 897.168,805.347 894.36,810.45C890.59,817.3 885.68,826.93 885.36,831.2C885.345,831.433 885.345,831.667 885.36,831.9L877,841.63C877,841.63 873.8,846.56 881,848.55C884.87,849.63 891.56,848.55 896.92,847.28C901.73,846.176 905.171,841.865 905.18,836.93C906.561,832.205 908.881,827.808 912,824L913.35,831.89L922.35,834.12L923.5,812.49C923.967,811.273 924.178,809.972 924.12,808.67C925.89,793.29 919.95,794.67 919.95,794.67C920.101,794.815 920.202,795.004 920.24,795.21C920.14,795.04 920.04,794.86 919.95,794.68C916.3,787.48 918.09,775.68 918.09,775.68C918.09,775.68 922.82,741.4 924.48,732.35C925.65,725.96 925.17,705.02 924.78,693.29C924.78,692.8 924.78,692.29 924.73,691.88C938.66,691.7 955.73,691.22 967.73,690.06L967.73,691.48L965.51,772.48C965.361,777.641 964.315,782.737 962.42,787.54C962.42,787.63 962.34,787.72 962.31,787.81C959.655,794.577 958.141,801.738 957.83,809L956.83,834.74L956.83,835.45C955.04,836.14 952.22,838.13 952.14,843.9C952.02,852.35 966.91,849.53 966.91,849.53C981.8,849.53 981.91,834.03 981.91,834.03C981.91,834.03 982.39,819.82 983.09,810.31C983.79,800.8 980.85,802.9 980.85,802.9L980.63,829.9L980.63,830.11L980.63,806.4L980.86,802.96L980.86,802.86L980.91,802.13L982.76,774.23C982.76,774.23 996.47,727.73 998.6,718.81C1000.11,712.48 999.48,693.38 998.98,682.81C998.98,682.32 998.98,681.86 998.92,681.41C1003.16,681.03 1006.92,680.99 1008.43,680.99L1009.12,680.99C1009.12,680.99 1008.41,606.31 1006.64,578.13C1004.87,549.95 1002.03,524.23 994.93,516.48C990.65,511.8 984.68,497.34 980.62,486.63C989.087,490.297 997.874,493.176 1006.87,495.23C1029.33,499.93 1026.26,480.43 1026.26,480.43L1023.98,443.56L1024.13,443.56C1024.05,433.9 1023.22,424.262 1021.65,414.73C1020.47,407.42 1018.65,399.86 1015.87,393.73C1018.31,392.8 1020.71,391.73 1023.07,390.73C1029.17,388.04 1036.07,384.22 1036.93,377.64L1036.63,377.64C1036.74,377.18 1036.82,376.712 1036.86,376.24ZM897.64,429.58C897.7,433.39 897.55,439.99 897.33,447.3L890.2,437.78L897.35,426.18L897.64,429.58ZM996.2,463.29L984.32,459.47C986.429,456.185 988.89,453.141 991.66,450.39L992.66,449.39L992.29,449.47L992.87,448.95L993.21,448.87L992.66,449.39L993.31,449.26C994.028,452.244 995.412,455.028 997.36,457.4C1001.6,462.12 996.16,463.29 996.16,463.29L996.2,463.29Z" style="fill:url(#_Linear5);fill-rule:nonzero;"/>
    </g>
    <path d="M835.72,774.95L834.32,801.29L825.46,799.08L823.59,788.12L835.72,774.95Z" style="fill:rgb(162,119,114);fill-rule:nonzero;"/>
    <path d="M835.72,774.95L834.32,801.29L825.46,799.08L823.59,788.12L835.72,774.95Z" style="fill-opacity:0.1;fill-rule:nonzero;"/>
    <path d="M868.24,804.79L881.76,807.59L891.76,798.73L891.76,773.78L891.98,770.37L891.98,770.27L892.03,769.55L893.85,741.85C893.85,741.85 907.37,695.68 909.47,686.85C910.96,680.56 910.34,661.59 909.85,651.11C909.65,646.81 909.47,643.94 909.47,643.94L879.63,636.71L879,659.71L876.82,740.11C876.671,745.233 875.636,750.291 873.76,755.06L873.66,755.33C871.062,762.066 869.598,769.186 869.33,776.4L868.33,801.95L868.33,802.66L868.24,804.79Z" style="fill:rgb(204,129,140);fill-rule:nonzero;"/>
    <path d="M892.02,769.56L892.02,770.27L892.07,769.55L892.02,769.56ZM868.24,804.79L881.76,807.59L891.76,798.73L891.76,796.61C891.698,797.567 891.155,798.429 890.32,798.9L890.18,798.98C885.524,801.445 880.244,802.489 875,801.98L869.72,801.53C869.244,801.583 868.777,801.697 868.33,801.87L868.33,802.58L868.24,804.79Z" style="fill-opacity:0.1;fill-rule:nonzero;"/>
    <path d="M890.21,799.68L890.35,799.6C891.247,799.099 891.803,798.147 891.8,797.12L892.02,770.26C892.02,770.26 894.94,768.19 894.24,777.63C893.54,787.07 893.07,801.18 893.07,801.18C893.07,801.18 892.96,816.57 878.27,816.57C878.27,816.57 863.58,819.36 863.69,810.97C863.8,802.58 869.76,802.23 869.76,802.23L875.03,802.69C880.275,803.189 885.553,802.143 890.21,799.68Z" style="fill:rgb(176,116,115);fill-rule:nonzero;"/>
    <path d="M797.83,799.08C798.18,805.14 816.01,801.64 816.01,801.64L828.01,778.33C828.01,778.33 838.01,770.63 833.01,763.87C832.738,763.504 832.491,763.119 832.27,762.72L832.27,762.66C832.16,762.48 832.07,762.3 831.97,762.11C828.37,754.97 830.14,743.26 830.14,743.26C830.14,743.26 834.8,709.26 836.44,700.26C837.59,693.91 837.12,673.12 836.73,661.48C836.58,656.65 836.44,653.39 836.44,653.39L806.82,645.47L806.82,654.3C806.76,661.6 806.54,671.82 805.82,678.46C804.54,689.77 809.09,727.19 809.09,727.19L810.66,761.25C810.884,767.015 809.524,772.733 806.73,777.78C803.01,784.58 798.17,794.15 797.83,798.39C797.81,798.62 797.81,798.85 797.83,799.08Z" style="fill:rgb(204,129,140);fill-rule:nonzero;"/>
    <path d="M797.83,799.08C798.18,805.14 816.01,801.64 816.01,801.64L828.01,778.33C828.01,778.33 838.01,770.63 833.01,763.87C832.738,763.504 832.491,763.119 832.27,762.72C832.11,766.25 828.27,775.06 828.27,775.06C828.27,775.06 818.36,794.89 815.27,799.43C812.18,803.97 798.42,798.59 797.91,798.43C797.866,798.644 797.839,798.862 797.83,799.08Z" style="fill-opacity:0.1;fill-rule:nonzero;"/>
    <path d="M831.95,762.09C831.95,762.09 837.81,760.73 836.07,776C836.199,779.529 834.421,782.868 831.42,784.73C827.23,787.37 820.75,793.04 817.48,804.07C817.485,808.957 814.097,813.24 809.34,814.36C804.05,815.59 797.45,816.68 793.63,815.61C786.52,813.61 789.63,808.74 789.63,808.74L797.79,799.06C797.79,799.06 812.01,804.66 815.16,800.11C818.31,795.56 828.16,775.74 828.16,775.74C828.16,775.74 833.73,763.37 831.95,762.09Z" style="fill:rgb(176,116,115);fill-rule:nonzero;"/>
    <path d="M879.67,639.48L879.04,662.48C887.04,661.71 892.68,660.63 893.66,659.12C895.75,655.87 903.39,654.49 909.89,653.93C909.69,649.63 909.51,646.76 909.51,646.76L879.67,639.48ZM806.79,657.06C807.557,655.509 808.677,654.16 810.06,653.12C813.21,651.37 812.87,664.31 812.87,664.31C812.87,664.31 823.32,664.41 836.71,664.24C836.56,659.4 836.42,656.15 836.42,656.15L806.8,648.23C806.8,648.23 806.84,651.92 806.79,657.06Z" style="fill-opacity:0.1;fill-rule:nonzero;"/>
    <path d="M803.42,660.14C803.42,660.14 806.92,650.67 810.06,648.93C813.2,647.19 812.87,660.12 812.87,660.12C812.87,660.12 889.81,660.82 893.66,654.87C897.51,648.92 919.89,649.28 919.89,649.28C919.89,649.28 919.19,575.13 917.44,547.15C915.69,519.17 912.89,493.64 905.9,485.95C901.37,480.95 894.9,464.86 890.96,454.12C888.79,448.25 887.36,443.98 887.36,443.98L813.92,448.18L813.32,454.12L805.52,532.12C805.52,532.12 804.52,618.12 801.32,637.74C798.12,657.36 803.42,660.14 803.42,660.14Z" style="fill:rgb(68,64,83);fill-rule:nonzero;"/>
    <g opacity="0.1">
        <path d="M887.73,654.92C891.57,648.98 913.96,649.33 913.96,649.33C913.96,649.33 913.26,575.18 911.51,547.2C909.76,519.22 906.96,493.69 899.97,486C895.44,481 888.97,464.91 885.03,454.17C883.21,449.24 881.91,445.44 881.54,444.35L887.24,444.03C887.24,444.03 888.67,448.3 890.84,454.17C894.84,464.91 901.25,481.02 905.78,486C912.78,493.69 915.57,519.22 917.32,547.2C919.07,575.18 919.73,649.28 919.73,649.28C919.73,649.28 897.35,648.92 893.51,654.92C890.22,660 833.6,660.23 817.16,660.19C838.24,660.09 884.73,659.46 887.73,654.92ZM804.1,648.92C805.52,648.13 806.23,650.32 806.58,652.92C805.312,655.227 804.206,657.619 803.27,660.08C802.334,662.541 801.27,658.99 800.47,653.46C801.58,651.49 802.87,649.61 804.1,648.92Z" style="fill-rule:nonzero;"/>
    </g>
    <path d="M826.11,264.58C821.03,271.52 826.17,281.37 820.72,288.11C818.92,290.34 816.15,291.93 814.27,294.11C810.79,298.17 810.93,303.67 812.64,308.44C814.35,313.21 817.44,317.54 819.56,322.18C820.48,324.18 821.22,326.45 820.27,328.45C819.61,329.84 818.27,330.89 817.15,332.1C813.65,336.01 813.55,341.45 815.43,346.05C817.31,350.65 820.92,354.64 824.43,358.52C825.83,360.06 827.6,361.75 829.93,361.71C831.157,361.61 832.344,361.219 833.39,360.57C841.682,356.204 847.978,348.804 850.96,339.92C853.48,331.561 852.949,322.573 849.46,314.57C846.46,307.5 841.58,300.72 841.54,293.24C841.54,287.31 844.59,281.65 845.13,275.74C845.79,268.57 841.54,257.17 832.88,254.04C833.45,258.67 828.73,261.06 826.11,264.58Z" style="fill:rgb(88,82,104);fill-rule:nonzero;"/>
    <path d="M826.11,264.58C821.03,271.52 826.17,281.37 820.72,288.11C818.92,290.34 816.15,291.93 814.27,294.11C810.79,298.17 810.93,303.67 812.64,308.44C814.35,313.21 817.44,317.54 819.56,322.18C820.48,324.18 821.22,326.45 820.27,328.45C819.61,329.84 818.27,330.89 817.15,332.1C813.65,336.01 813.55,341.45 815.43,346.05C817.31,350.65 820.92,354.64 824.43,358.52C825.83,360.06 827.6,361.75 829.93,361.71C831.157,361.61 832.344,361.219 833.39,360.57C841.682,356.204 847.978,348.804 850.96,339.92C853.48,331.561 852.949,322.573 849.46,314.57C846.46,307.5 841.58,300.72 841.54,293.24C841.54,287.31 844.59,281.65 845.13,275.74C845.79,268.57 841.54,257.17 832.88,254.04C833.45,258.67 828.73,261.06 826.11,264.58ZM882.5,516.7C872.32,517.24 862.74,521.61 853.83,526.56C844.92,531.51 836.3,537.16 826.71,540.64M876.17,540.68C866.101,541.646 856.711,546.21 849.73,553.53C847.26,556.15 845.13,559.09 842.55,561.6C838.595,565.443 833.713,568.199 828.38,569.6M878.26,558.92C870.142,561.173 862.793,565.603 857.01,571.73C855.45,573.41 854.01,575.22 852.47,576.89C844.04,585.89 832.14,590.74 820.65,595.28" style="fill-opacity:0.1;fill-rule:nonzero;"/>
    <path d="M877.39,305.83C877.618,313.964 878.319,322.078 879.49,330.13C880.43,335.87 881.77,340.98 883.69,343.25C889.28,349.9 856.41,358.82 856.41,358.82L837,343.82C837,343.82 852.39,329.65 845.22,315.82C838.05,301.99 877.39,305.83 877.39,305.83Z" style="fill:rgb(204,129,140);fill-rule:nonzero;"/>
    <path d="M813.32,454.12L890.96,454.12C888.79,448.25 887.36,443.98 887.36,443.98L813.92,448.18L813.32,454.12Z" style="fill-opacity:0.1;fill-rule:nonzero;"/>
    <path d="M808.32,452.72L891.32,452.72C888.99,444.38 891.32,436.65 894.65,430.72C896.977,426.554 899.905,422.753 903.34,419.44L903.91,418.93L932.91,412.5L934.47,412.16C934.47,412.16 934.7,359.47 916.05,352.24C897.4,345.01 886.2,335.24 886.2,335.24L860.56,343.16L841.67,333.61C835.61,340.14 819.52,337.61 819.52,337.61C793.17,340.61 793.17,360.46 793.17,360.46C793.17,360.46 808.56,396.37 809.73,396.37C810.9,396.37 808.32,452.72 808.32,452.72Z" style="fill:rgb(103,100,126);fill-rule:nonzero;"/>
    <path d="M836.98,419.22C836.98,419.22 820.05,415.47 814.29,408.91M922.33,399.56L902.73,415.65C902.872,416.922 903.089,418.184 903.38,419.43L903.95,418.92L932.95,412.49L922.33,399.56ZM869.17,447.13C869.17,447.13 873.47,449.55 880.05,452.72L891.33,452.72C889,444.38 891.33,436.65 894.66,430.72L874.73,424.27C881.53,430.57 869.17,447.13 869.17,447.13Z" style="fill-opacity:0.1;fill-rule:nonzero;"/>
    <path d="M804.82,354.1L793.16,360.39L781.73,389.3C781.73,389.3 769.84,421.01 771,429.41C771,429.41 766.81,449.22 774.27,452.72L793.73,461.52C793.964,461.626 794.217,461.681 794.474,461.681C795.461,461.681 796.274,460.868 796.274,459.881C796.274,459.584 796.2,459.292 796.06,459.03C793.29,453.78 790.25,445.58 795.06,441.03L789.46,429.38L809.73,396.3L816.48,384.92L804.82,354.1Z" style="fill:rgb(103,100,126);fill-rule:nonzero;"/>
    <path d="M830.73,412.6C831.73,416.72 835.15,423.05 846.43,425.44L858.85,435.58L872.02,441.58L877.38,444.01L879.66,427.57L874.49,424.74L868.49,421.45C868.49,421.45 854.9,396.81 833.37,407.22C831.34,408.164 830.235,410.417 830.73,412.6Z" style="fill-opacity:0.1;fill-rule:nonzero;"/>
    <path d="M831.44,411.2C832.44,415.32 835.86,421.65 847.14,424.04L859.56,434.19L872.73,440.19L878.09,442.62L880.37,426.18L875.2,423.36L869.2,420.06C869.2,420.06 855.61,395.43 834.08,405.83C832.054,406.773 830.95,409.02 831.44,411.2Z" style="fill:rgb(204,129,140);fill-rule:nonzero;"/>
    <circle cx="855.7" cy="297.09" r="30.08" style="fill-opacity:0.1;"/>
    <circle cx="855.7" cy="296.39" r="30.08" style="fill:rgb(204,129,140);"/>
    <path d="M874.33,360.65L865.33,343.07C865.33,343.07 878.57,337.73 879.53,331.53C880.49,325.33 892.21,338.79 889.67,343.25C887.13,347.71 874.33,360.65 874.33,360.65Z" style="fill-opacity:0.1;fill-rule:nonzero;"/>
    <path d="M874.33,359.25L865.33,341.67C865.33,341.67 878.57,336.33 879.53,330.13C880.49,323.93 892.21,337.4 889.67,341.85C887.13,346.3 874.33,359.25 874.33,359.25Z" style="fill:rgb(103,100,126);fill-rule:nonzero;"/>
    <path d="M800.32,404.65L850.32,471.84C850.32,471.84 831.9,481.84 806.48,463.91L795.48,450.86L764.23,398.16L800.32,404.65Z" style="fill:rgb(246,248,251);fill-rule:nonzero;"/>
    <path d="M790.48,441.18L795.03,441.06C795.03,441.06 822.83,414.06 829.65,427.72C836.47,441.38 812.34,454.12 812.34,454.12L805,458.12L795.38,460.92L789.26,452.7L790.48,441.18Z" style="fill:rgb(204,129,140);fill-rule:nonzero;"/>
    <path d="M797.19,455.76C797.61,457.31 798.01,459.02 797.31,460.46C797.148,460.849 796.854,461.168 796.48,461.36C796.164,461.491 795.82,461.54 795.48,461.5C793.073,461.294 790.831,460.182 789.21,458.39C787.61,456.61 786.242,454.634 785.14,452.51C783.9,450.36 782.61,447.96 783.06,445.51C783.55,442.83 785.94,440.97 788.22,439.51C792.83,436.46 792.94,440.01 793.99,443.93L797.19,455.76Z" style="fill-opacity:0.1;fill-rule:nonzero;"/>
    <path d="M796.49,455.76C796.91,457.31 797.31,459.02 796.61,460.46C796.448,460.849 796.154,461.168 795.78,461.36C795.464,461.491 795.12,461.54 794.78,461.5C792.373,461.294 790.131,460.182 788.51,458.39C786.91,456.61 785.542,454.634 784.44,452.51C783.2,450.36 781.91,447.96 782.36,445.51C782.85,442.83 785.24,440.97 787.52,439.51C792.13,436.46 792.24,440.01 793.29,443.93L796.49,455.76Z" style="fill:rgb(103,100,126);fill-rule:nonzero;"/>
    <path d="M809.72,396.3L812.05,392.37L810.01,399.67L809.72,396.3ZM872.73,440.15L878.09,442.58L880.37,426.14L875.2,423.32C878.73,427.38 875.64,434.92 872.73,440.15ZM894.24,421.07C894.24,421.07 876.93,422.12 869.59,417.4" style="fill-opacity:0.1;fill-rule:nonzero;"/>
    <g opacity="0.1">
        <path d="M892.09,432.11C894.423,427.945 897.354,424.144 900.79,420.83C901.614,420.312 902.469,419.844 903.35,419.43L930.35,413.89L931.91,413.55C931.91,413.55 932.15,360.86 913.49,353.63C903.033,349.642 893.229,344.118 884.4,337.24L886.45,336.61C886.45,336.61 897.64,346.4 916.29,353.61C934.94,360.82 934.73,413.55 934.73,413.55L931.93,413.55L904.29,418.84L902.73,420.33C899.264,423.796 896.293,427.723 893.9,432C890.253,438.78 889.423,446.732 891.59,454.12L888.73,454.12C886.43,445.78 888.8,438.05 892.09,432.11ZM818.4,339.12C818.85,339.06 819.28,338.99 819.74,338.94C821.633,339.207 823.539,339.364 825.45,339.41C823.096,339.475 820.741,339.378 818.4,339.12ZM857.98,344.53L840.9,335.92C841.254,335.641 841.589,335.337 841.9,335.01L859.72,344.01L857.98,344.53Z" style="fill-rule:nonzero;"/>
    </g>
    <path d="M923.03,398.16L934.46,412.16L936.79,450.16C936.79,450.16 939.79,469.51 917.67,464.85C895.55,460.19 869.87,445.73 869.87,445.73C869.87,445.73 882.23,429.17 875.47,422.88L907.18,433.14C907.18,433.14 912.54,431.97 908.34,427.31C904.14,422.65 903.4,414.25 903.4,414.25L923.03,398.16Z" style="fill:rgb(103,100,126);fill-rule:nonzero;"/>
    <path d="M928.16,438.27L934.46,445.49C931.162,444.481 928.713,441.675 928.16,438.27ZM917.44,437.1L927.23,449.69L922.34,450.86L917.44,437.1ZM819.79,282.58C818.71,279.95 819.53,276.91 820.79,274.38C822.05,271.85 823.86,269.55 824.79,266.87C826.24,262.87 825.79,258.39 827.37,254.45C830.14,247.55 838.01,244.45 845.07,242.12C847.15,241.43 849.37,240.73 851.51,241.24C854.33,241.92 856.22,244.51 858.51,246.24C868.09,253.38 883.66,245.52 892.92,253.08C896.47,255.97 898.19,260.61 898.72,265.15C899.25,269.69 898.72,274.3 898.67,278.88C898.52,286.88 900.01,295.66 906.02,300.97C907.83,302.57 909.96,303.78 911.72,305.43C913.48,307.08 914.87,309.43 914.56,311.8C914.311,312.901 913.977,313.981 913.56,315.03C912.36,319.21 914.14,323.64 916.31,327.41C922.79,338.61 934.2,347.84 947.15,348.1C946.28,354.63 939.5,358.42 933.48,361.1C925.81,364.51 917.75,367.86 909.37,367.43C900.99,367 892.25,361.64 890.76,353.43C890.25,350.6 890.32,347.13 887.86,345.64C886.38,344.74 884.46,344.97 882.86,344.29C880.55,343.29 879.4,340.75 878.64,338.35C877.079,333.417 876.24,328.284 876.15,323.11C876.05,316.98 876.87,310.29 873.39,305.24C870.17,300.57 864.45,298.24 860.74,293.9C857.32,289.9 853.59,285.12 847.98,284.36C840.44,283.27 824.38,293.82 819.79,282.58Z" style="fill-opacity:0.1;fill-rule:nonzero;"/>
    <path d="M819.79,281.18C818.71,278.55 819.53,275.51 820.79,272.98C822.05,270.45 823.86,268.15 824.79,265.47C826.24,261.47 825.79,256.99 827.37,253.05C830.14,246.15 838.01,243.05 845.07,240.72C847.15,240.03 849.37,239.33 851.51,239.84C854.33,240.52 856.22,243.11 858.51,244.84C868.09,251.99 883.66,244.12 892.92,251.68C896.47,254.58 898.19,259.21 898.72,263.75C899.25,268.29 898.72,272.9 898.67,277.48C898.52,285.48 900.01,294.26 906.02,299.57C907.83,301.17 909.96,302.38 911.72,304.03C913.48,305.68 914.87,308.03 914.56,310.4C914.31,311.504 913.976,312.587 913.56,313.64C912.36,317.81 914.14,322.25 916.31,326.01C922.79,337.21 934.2,346.44 947.15,346.7C946.28,353.23 939.5,357.02 933.48,359.7C925.81,363.12 917.75,366.46 909.37,366.03C900.99,365.6 892.25,360.24 890.76,351.98C890.25,349.15 890.32,345.68 887.86,344.19C886.38,343.29 884.46,343.52 882.86,342.84C880.55,341.84 879.4,339.3 878.64,336.9C877.079,331.967 876.24,326.834 876.15,321.66C876.05,315.53 876.87,308.84 873.39,303.79C870.17,299.12 864.45,296.79 860.74,292.45C857.32,288.45 853.59,283.67 847.98,282.91C840.44,281.92 824.38,292.42 819.79,281.18Z" style="fill:rgb(88,82,104);fill-rule:nonzero;"/>
    <path d="M841.11,358.47L858.35,344.47C858.35,344.47 846.55,338.07 845.14,332.61C843.73,327.15 834.29,335.2 835.25,340.1C836.21,345 841.11,358.47 841.11,358.47Z" style="fill-opacity:0.1;fill-rule:nonzero;"/>
    <path d="M841.81,356.37L859.05,342.37C859.05,342.37 847.25,335.97 845.84,330.51C844.43,325.05 834.99,333.1 835.95,338C836.91,342.9 841.81,356.37 841.81,356.37Z" style="fill:rgb(103,100,126);fill-rule:nonzero;"/>
    <circle cx="859.72" cy="354.09" r="1.37" style="fill-opacity:0.1;"/>
    <circle cx="859.72" cy="361.71" r="1.37" style="fill-opacity:0.1;"/>
    <circle cx="859.72" cy="369.32" r="1.37" style="fill-opacity:0.1;"/>
    <g opacity="0.1">
        <path d="M826.73,261.75C828.09,258 827.8,253.8 829.07,250.03C828.488,250.866 828.001,251.765 827.62,252.71C826.04,256.65 826.48,261.15 825.04,265.14C825.04,265.21 824.97,265.29 824.94,265.37C825.646,264.22 826.245,263.009 826.73,261.75ZM935.52,355.98C927.85,359.4 919.79,362.74 911.4,362.31C903.01,361.88 894.29,356.52 892.8,348.26C892.29,345.43 892.36,341.96 889.9,340.47C888.42,339.57 886.5,339.8 884.9,339.12C882.58,338.12 881.44,335.58 880.68,333.18C879.117,328.24 878.278,323.1 878.19,317.92C878.09,311.79 878.9,305.1 875.43,300.05C872.21,295.38 866.49,293.05 862.78,288.71C859.35,284.71 855.63,279.93 850.01,279.17C842.31,278.17 826.24,288.67 821.66,277.43C820.926,275.306 821.03,272.98 821.95,270.93C821.62,271.49 821.3,272.05 821.01,272.62C819.71,275.15 818.89,278.19 820.01,280.82C824.6,292.06 840.66,281.51 848.37,282.56C853.98,283.32 857.71,288.13 861.14,292.1C864.85,296.4 870.56,298.77 873.78,303.45C877.26,308.45 876.45,315.19 876.55,321.31C876.632,326.487 877.468,331.624 879.03,336.56C879.79,338.95 880.94,341.56 883.25,342.5C884.85,343.17 886.77,342.95 888.25,343.85C890.7,345.33 890.64,348.85 891.14,351.63C892.63,359.89 901.37,365.26 909.75,365.69C918.13,366.12 926.2,362.77 933.86,359.35C939.38,356.9 945.53,353.49 947.18,347.91C944.5,351.58 939.82,354.07 935.52,355.98Z" style="fill-rule:nonzero;"/>
    </g>
    <defs>
        <linearGradient id="_Linear1" x1="0" y1="0" x2="1" y2="0" gradientUnits="userSpaceOnUse" gradientTransform="matrix(1.111e-14,-181.44,181.44,1.111e-14,352.43,317.15)"><stop offset="0" style="stop-color:rgb(128,128,128);stop-opacity:0.25"/><stop offset="0.54" style="stop-color:rgb(128,128,128);stop-opacity:0.12"/><stop offset="1" style="stop-color:rgb(128,128,128);stop-opacity:0.1"/></linearGradient>
        <linearGradient id="_Linear2" x1="0" y1="0" x2="1" y2="0" gradientUnits="userSpaceOnUse" gradientTransform="matrix(1.78359e-12,-29128.2,29128.2,1.78359e-12,174455,94503.6)"><stop offset="0" style="stop-color:rgb(128,128,128);stop-opacity:0.25"/><stop offset="0.54" style="stop-color:rgb(128,128,128);stop-opacity:0.12"/><stop offset="1" style="stop-color:rgb(128,128,128);stop-opacity:0.1"/></linearGradient>
        <linearGradient id="_Linear3" x1="0" y1="0" x2="1" y2="0" gradientUnits="userSpaceOnUse" gradientTransform="matrix(1.93229e-18,-0.0315567,0.0315567,1.93229e-18,298.04,374.945)"><stop offset="0" style="stop-color:rgb(128,128,128);stop-opacity:0.02"/><stop offset="0.54" style="stop-color:rgb(128,128,128);stop-opacity:0.01"/><stop offset="1" style="stop-color:rgb(128,128,128);stop-opacity:0.01"/></linearGradient>
        <linearGradient id="_Linear4" x1="0" y1="0" x2="1" y2="0" gradientUnits="userSpaceOnUse" gradientTransform="matrix(2.2302e-11,-364219,364219,2.2302e-11,47271.5,515506)"><stop offset="0" style="stop-color:rgb(128,128,128);stop-opacity:0.25"/><stop offset="0.54" style="stop-color:rgb(128,128,128);stop-opacity:0.12"/><stop offset="1" style="stop-color:rgb(128,128,128);stop-opacity:0.1"/></linearGradient>
        <linearGradient id="_Linear5" x1="0" y1="0" x2="1" y2="0" gradientUnits="userSpaceOnUse" gradientTransform="matrix(2.07067e-11,-338167,338167,2.07067e-11,176095,494528)"><stop offset="0" style="stop-color:rgb(128,128,128);stop-opacity:0.25"/><stop offset="0.54" style="stop-color:rgb(128,128,128);stop-opacity:0.12"/><stop offset="1" style="stop-color:rgb(128,128,128);stop-opacity:0.1"/></linearGradient>
    </defs>
</svg>
